<svg xmlns="http://www.w3.org/2000/svg" version="1.1" xmlns:xlink="http://www.w3.org/1999/xlink" xmlns:svgjs="http://svgjs.dev/svgjs" width="1000" height="623" viewBox="0 0 1000 623"><g transform="matrix(1,0,0,1,-0.6060606060606233,0.2522267206477409)"><svg viewBox="0 0 396 247" data-background-color="#ffffff" preserveAspectRatio="xMidYMid meet" height="623" width="1000" xmlns="http://www.w3.org/2000/svg" xmlns:xlink="http://www.w3.org/1999/xlink"><g id="tight-bounds" transform="matrix(1,0,0,1,0.2400000000000091,-0.09999999999999432)"><svg viewBox="0 0 395.52 247.2" height="247.2" width="395.52"><g><svg></svg></g><g><svg viewBox="0 0 395.52 247.2" height="247.2" width="395.52"><g transform="matrix(1,0,0,1,39.55199999999999,75.44973913043478)"><svg viewBox="0 0 316.416 96.30052173913043" height="96.30052173913043" width="316.416"><g><svg viewBox="0 0 316.416 96.30052173913043" height="96.30052173913043" width="316.416"><g><svg viewBox="0 0 316.416 96.30052173913043" height="96.30052173913043" width="316.416"><g id="textblocktransform"><svg viewBox="0 0 316.416 96.30052173913043" height="96.30052173913043" width="316.416" id="textblock"><g><svg viewBox="0 0 316.416 96.30052173913043" height="96.30052173913043" width="316.416"><g transform="matrix(1,0,0,1,0,0)"><svg width="316.416" viewBox="0 -50 143.75 43.75" height="96.30052173913043" data-palette-color="#bb84e8"><path d="M31.25-6.25L0-6.25 0-50 31.25-50 31.25-43.75 37.5-43.75 37.5-37.5 43.75-37.5 43.75-18.75 37.5-18.75 37.5-12.5 31.25-12.5 31.25-6.25ZM12.5-43.75L12.5-12.5 25-12.5 25-18.75 31.25-18.75 31.25-37.5 25-37.5 25-43.75 12.5-43.75ZM75-6.25L62.5-6.25 62.5-18.75 75-18.75 75-6.25ZM137.5-6.25L106.25-6.25 106.25-12.5 100-12.5 100-18.75 112.5-18.75 112.5-12.5 131.25-12.5 131.25-25 106.25-25 106.25-31.25 100-31.25 100-43.75 106.25-43.75 106.25-50 137.5-50 137.5-43.75 143.75-43.75 143.75-37.5 131.25-37.5 131.25-43.75 112.5-43.75 112.5-31.25 137.5-31.25 137.5-25 143.75-25 143.75-12.5 137.5-12.5 137.5-6.25Z" opacity="1" transform="matrix(1,0,0,1,0,0)" fill="#bb84e8" class="undefined-text-0" data-fill-palette-color="primary" id="text-0"></path></svg></g></svg></g></svg></g></svg></g><g></g></svg></g></svg></g><g mask="url(#87dcc591-d10e-485c-8bc4-a0e63fec4c54)"><g transform="matrix(3.132798587597496, 0, 0, 3.132798587597496, 69.35536438456151, 1)"><svg xmlns="http://www.w3.org/2000/svg" xmlns:xlink="http://www.w3.org/1999/xlink" xml:space="preserve" version="1.1" style="shape-rendering:geometricPrecision;text-rendering:geometricPrecision;image-rendering:optimizeQuality;" viewBox="9.014404296875 10.865238189697266 81.97439575195312 78.2686767578125" x="0" y="0" fill-rule="evenodd" clip-rule="evenodd" height="78.2686767578125" width="81.97439575195312" class="icon-none" data-fill-palette-color="accent" id="none"><g fill="#bb84e8" data-fill-palette-color="accent"><path class="" d="M17.87 39.75c-8.02-19.9 11.71-19.68 26.35-24.23 2.75-0.86 23.14-12.55 14.52 4.76-0.32 0.64-0.67 1.24-1.05 1.78 13.31-3.14 21.79-8.92 14.85 6.31 11.22 10.02 25.41 19.03 14.58 37.9-15.25 26.57-47.89 30.35-70.2 9.41-11.49-10.8-10.67-28.52 3.87-33.44 0.17-0.04 0.34-0.07 0.51-0.07 1.1-0.04 2.11 0.69 2.4 1.79 0.33 1.28-0.44 2.59-1.72 2.91-1.84 0.62-3.16 1.2-4.49 2.71-14.71 16.69 13.31 32.19 28.16 34.28 24.05 3.37 53.07-23.59 33.24-44.33-15.31-16.02-12.56-3.56-9.13-15.64-2.75 1.02-4.4 1.57-8.79 2.54-21.29 4.72-10.08-2.14-6.49-9.73l-9.09 3.45c-13.09 4.12-29.12 2.97-23.26 17.43 0.57 1.12 0.18 2.48-0.88 3.12l-0.16 0.1c-1.18 0.6-2.62 0.13-3.22-1.05z m14.66 20.52c5.14-0.96 17.25-3.39 21.5-2.59l-0.23 0.03c1.31-0.11 2.47 0.87 2.58 2.19 0.11 1.31-0.87 2.47-2.19 2.58-6.04-0.57-13.38 1.08-19.53 2.24 10.67 16.36 41.04 1.76 34.83-15.64-0.07-0.17-0.12-0.34-0.15-0.51-0.21-1.08 0.35-2.19 1.39-2.64 1.22-0.53 2.62 0.03 3.15 1.24 9.73 27.31-43.28 46.4-47.38 7.09-0.05-0.19-0.07-0.38-0.07-0.57l0-0.01 0-0.04 0-0.02 0.01-0.03 0-0.03 0-0.03 0-0.03 0-0.03 0.01-0.03 0-0.03 0-0.03 0.01-0.02 0-0.04 0.01-0.02 0-0.04 0.01-0.02 0.01-0.04 0-0.01 0.01-0.05 0.03-0.11 0-0.01c0.02-0.07 0.05-0.14 0.08-0.21l0 0 0.02-0.06 0.02-0.05 0 0 0.03-0.05 0 0 0.02-0.05 0-0.01 0.03-0.04 0-0.01 0.03-0.04 0.03-0.05 0-0.01 0.03-0.04 0 0 0.03-0.05 0 0 0.04-0.05 0.03-0.05 0.04-0.04 0 0 0.03-0.05 0.01 0 0.03-0.04 0 0 0.04-0.04 0 0 0.04-0.04 0-0.01 0.04-0.03 0.01-0.01 0.03-0.03 0.01-0.01 0.03-0.03 0.01-0.01 0.04-0.03 0.01-0.01 0.03-0.03 0.02-0.01 0.03-0.02 0.01-0.01 0.03-0.03 0.02-0.01c0.16-0.11 0.33-0.2 0.51-0.28 13.48-6.55 20.64-4.53 35.23-6.32 1.13-0.14 0.9-0.13 1.76-0.11 1.32 0 2.39 1.07 2.39 2.39 0 1.32-1.07 2.39-2.39 2.39l-0.6-0.01 0.12-0.06c-9.72 1.43-14.64 0.8-19.79 1.31-1.58 0.16-3.18 0.43-4.95 0.9-2.37 0.62-5.03 1.6-8.34 3.16 0.25 1.89 0.64 3.6 1.16 5.14z m3.31-21.61c1.16 0.79 1.66 1.62 1.64 2.82 0.02 0.12 0.04 0.24 0.05 0.36 0.12 1.31-0.85 2.48-2.16 2.59-1.61 0.02-2.69-0.97-2.73-2.4-0.47-0.73-0.52-1.68-0.06-2.49 0.66-1.14 2.12-1.54 3.26-0.88z m25.45-1.18c-0.02 1.03 0.06 1.5-0.51 2.3-0.43 1.23-1.77 1.89-3.01 1.48-1.25-0.42-1.93-1.77-1.51-3.03 0.11-0.28 0.18-0.47 0.25-0.62l0-0.13c0-1.32 1.07-2.39 2.39-2.39 1.32 0 2.39 1.07 2.39 2.39z m-0.59 2.41l-0.09 0.12c0.06-0.07 0.07-0.08 0.09-0.12z" fill="#bb84e8" data-fill-palette-color="accent"></path></g></svg></g></g></svg></g><defs><mask id="87dcc591-d10e-485c-8bc4-a0e63fec4c54"><rect width="640" height="400" fill="white"></rect><rect width="348.05760000000004" height="141.76900567930434" fill="black" x="145.97119999999998" y="129.11549716034784" id="transform-me" transform="matrix(1,0,0,1,-197.66071870990936,-76.4)"></rect></mask></defs></svg><rect width="395.52" height="247.2" fill="none" stroke="none" visibility="hidden"></rect></g></svg></g></svg>